# Blender v2.75 (sub 0) OBJ File: ''
# www.blender.org
o Cube
v 10.000000 -10.000000 -9.999999
v 10.000000 -10.000000 10.000000
v -10.000001 -10.000000 9.999998
v -9.999996 -10.000000 -10.000004
v 10.000005 10.000000 -9.999994
v 9.999993 10.000000 10.000006
v -10.000004 10.000000 9.999996
v -9.999999 10.000000 -10.000000
vt 0.250043 0.999913
vt 0.250043 0.749957
vt 0.500000 0.749957
vt 0.500000 0.500000
vt 0.250044 0.500000
vt 0.250044 0.250043
vt 0.749957 0.749957
vt 0.749957 0.999913
vt 0.000087 0.999913
vt 0.000087 0.749956
vt 0.250044 0.000087
vt 0.500000 0.000087
vt 0.500000 0.999913
vt 0.500000 0.250043
vn 0.000000 1.000000 -0.000000
vn 0.000000 -1.000000 -0.000000
vn -1.000000 -0.000000 -0.000000
vn 0.000000 -0.000000 -1.000000
vn 1.000000 0.000000 0.000000
vn -0.000000 -0.000000 1.000000
s off
f 4/1/1 3/2/1 2/3/1
f 6/4/2 7/5/2 8/6/2
f 2/3/3 6/7/3 5/8/3
f 3/2/4 7/5/4 6/4/4
f 4/1/5 8/9/5 7/10/5
f 8/6/6 4/11/6 1/12/6
f 1/13/1 4/1/1 2/3/1
f 5/14/2 6/4/2 8/6/2
f 1/13/3 2/3/3 5/8/3
f 2/3/4 3/2/4 6/4/4
f 3/2/5 4/1/5 7/10/5
f 5/14/6 8/6/6 1/12/6
